<?xml version="1.0" standalone="no"?>
<svg xmlns:xlink="http://www.w3.org/1999/xlink" id="wave" style="transform:rotate(0deg); transition: 0.3s" viewBox="0 0 1440 150" version="1.1" xmlns="http://www.w3.org/2000/svg"><defs><linearGradient id="sw-gradient-0" x1="0" x2="0" y1="1" y2="0"><stop stop-color="rgba(143, 181, 34, 1)" offset="0%"/><stop stop-color="rgba(143, 181, 34, 1)" offset="100%"/></linearGradient></defs><path style="transform:translate(0, 0px); opacity:1" fill="url(#sw-gradient-0)" d="M0,90L17.1,92.5C34.3,95,69,100,103,105C137.1,110,171,115,206,102.5C240,90,274,60,309,62.5C342.9,65,377,100,411,97.5C445.7,95,480,55,514,32.5C548.6,10,583,5,617,7.5C651.4,10,686,20,720,32.5C754.3,45,789,60,823,65C857.1,70,891,65,926,62.5C960,60,994,60,1029,60C1062.9,60,1097,60,1131,62.5C1165.7,65,1200,70,1234,62.5C1268.6,55,1303,35,1337,27.5C1371.4,20,1406,25,1440,32.5C1474.3,40,1509,50,1543,65C1577.1,80,1611,100,1646,110C1680,120,1714,120,1749,120C1782.9,120,1817,120,1851,122.5C1885.7,125,1920,130,1954,132.5C1988.6,135,2023,135,2057,117.5C2091.4,100,2126,65,2160,52.5C2194.3,40,2229,50,2263,45C2297.1,40,2331,20,2366,30C2400,40,2434,80,2451,100L2468.6,120L2468.6,150L2451.4,150C2434.3,150,2400,150,2366,150C2331.4,150,2297,150,2263,150C2228.6,150,2194,150,2160,150C2125.7,150,2091,150,2057,150C2022.9,150,1989,150,1954,150C1920,150,1886,150,1851,150C1817.1,150,1783,150,1749,150C1714.3,150,1680,150,1646,150C1611.4,150,1577,150,1543,150C1508.6,150,1474,150,1440,150C1405.7,150,1371,150,1337,150C1302.9,150,1269,150,1234,150C1200,150,1166,150,1131,150C1097.1,150,1063,150,1029,150C994.3,150,960,150,926,150C891.4,150,857,150,823,150C788.6,150,754,150,720,150C685.7,150,651,150,617,150C582.9,150,549,150,514,150C480,150,446,150,411,150C377.1,150,343,150,309,150C274.3,150,240,150,206,150C171.4,150,137,150,103,150C68.6,150,34,150,17,150L0,150Z"/></svg>