<svg id="wave" viewBox="0 0 1440 123" fill="none" xmlns="http://www.w3.org/2000/svg">
<path d="M0 63L17.1 65.5C34.3 68 69 73 103 78C137.1 83 171 88 206 75.5C240 63 274 33 309 35.5C342.9 38 377 73 411 70.5C445.7 68 480 60.5 514 38C546.5 38 557 30.5 591 33C625.4 35.5 646.5 50.5 680.5 63C714.8 75.5 789 33 823 38C857.1 43 866.5 65.5 901.5 63C935.5 60.5 994 33 1029 33C1062.9 33 1097 60.5 1131 63C1165.7 65.5 1200 43 1234 35.5C1268.6 28 1303 70.5 1337 63C1371.4 55.5 1390 55.5 1424 63C1458.3 70.5 1509 23 1543 38C1577.1 53 1611 73 1646 83C1680 93 1714 93 1749 93C1782.9 93 1817 93 1851 95.5C1885.7 98 1920 103 1954 105.5C1988.6 108 2023 108 2057 90.5C2091.4 73 2126 38 2160 25.5C2194.3 13 2229 23 2263 18C2297.1 13 2331 -6.99999 2366 3.00001C2400 13 2434 53 2451 73L2468.6 93V123H2451.4C2434.3 123 2400 123 2366 123C2331.4 123 2297 123 2263 123C2228.6 123 2194 123 2160 123C2125.7 123 2091 123 2057 123C2022.9 123 1989 123 1954 123C1920 123 1886 123 1851 123C1817.1 123 1783 123 1749 123C1714.3 123 1680 123 1646 123C1611.4 123 1577 123 1543 123C1508.6 123 1474 123 1440 123C1405.7 123 1371 123 1337 123C1302.9 123 1269 123 1234 123C1200 123 1166 123 1131 123C1097.1 123 1063 123 1029 123C994.3 123 960 123 926 123C891.4 123 857 123 823 123C788.6 123 754 123 720 123C685.7 123 651 123 617 123C582.9 123 549 123 514 123C480 123 446 123 411 123C377.1 123 343 123 309 123C274.3 123 240 123 206 123C171.4 123 137 123 103 123C68.6 123 34 123 17 123H0V63Z" fill="#8FB522"/>
</svg>
