<?xml version="1.0" standalone="no"?>
<!DOCTYPE svg PUBLIC "-//W3C//DTD SVG 20010904//EN"
 "http://www.w3.org/TR/2001/REC-SVG-20010904/DTD/svg10.dtd">
<svg version="1.0" xmlns="http://www.w3.org/2000/svg"
 width="1094.000000pt" height="1094.000000pt" viewBox="0 0 1094.000000 1094.000000"
 preserveAspectRatio="xMidYMid meet">
<metadata>
Created by potrace 1.14, written by Peter Selinger 2001-2017
</metadata>
<g transform="translate(0.000000,1094.000000) scale(0.100000,-0.100000)"
fill="#000000" stroke="none">
<path d="M5129 10866 c-2 -2 -52 -7 -111 -10 -59 -4 -122 -9 -140 -11 -18 -2
-60 -6 -93 -10 -58 -6 -228 -30 -290 -40 -139 -25 -155 -28 -225 -44 -25 -5
-56 -12 -70 -15 -573 -120 -1233 -399 -1760 -744 -436 -286 -849 -652 -1170
-1037 -41 -50 -77 -92 -80 -95 -12 -12 -190 -251 -242 -325 -253 -364 -476
-802 -633 -1241 -31 -88 -61 -172 -66 -189 -4 -16 -18 -60 -29 -96 -11 -36
-22 -76 -25 -89 -2 -12 -9 -37 -14 -54 -6 -17 -12 -44 -15 -59 -3 -16 -9 -43
-15 -60 -29 -91 -99 -488 -116 -662 -4 -33 -8 -76 -10 -95 -27 -229 -27 -864
0 -1045 2 -16 7 -57 10 -90 7 -73 45 -338 50 -345 2 -3 6 -26 10 -50 10 -73
73 -343 110 -475 128 -455 371 -1006 603 -1365 269 -419 465 -664 787 -985
482 -481 1051 -864 1685 -1134 41 -18 84 -36 95 -41 91 -39 280 -105 485 -168
140 -44 451 -115 635 -147 17 -3 41 -7 55 -9 25 -5 236 -31 320 -40 258 -29
917 -29 1185 -2 17 2 59 7 95 10 158 17 503 78 675 120 485 120 980 317 1400
560 120 69 304 185 380 238 22 16 51 36 65 45 75 51 333 256 444 353 132 116
369 355 486 490 36 41 67 77 70 80 25 24 190 240 267 348 320 450 563 933 731
1452 72 222 152 535 176 690 3 19 10 58 15 85 5 28 12 73 15 100 3 28 8 59 10
70 2 11 7 49 11 85 3 36 8 76 10 90 2 14 7 62 10 108 4 45 8 108 11 140 5 69
5 583 0 632 -2 19 -7 80 -11 135 -4 55 -8 107 -10 115 -2 8 -6 44 -9 80 -4 36
-9 76 -11 90 -8 45 -15 86 -19 121 -7 52 -15 93 -42 229 -15 69 -27 132 -29
140 -8 41 -25 105 -76 285 -124 442 -328 901 -583 1318 -400 653 -951 1226
-1591 1654 -138 93 -302 193 -315 193 -4 0 -10 3 -12 8 -9 21 -410 219 -618
305 -185 76 -544 199 -650 222 -8 2 -51 12 -95 24 -44 11 -91 22 -105 25 -14
2 -47 9 -75 16 -71 16 -250 49 -304 55 -25 3 -56 8 -68 10 -12 3 -41 7 -65 10
-24 3 -59 7 -78 10 -19 2 -64 7 -100 10 -36 4 -90 9 -120 11 -62 6 -806 15
-811 10z"/>
</g>
</svg>
